<svg xmlns="http://www.w3.org/2000/svg" xml:space="preserve" id="Layer_2" x="0" y="0" style="enable-background:new 0 0 500 500" version="1.1" viewBox="0 0 500 500"><style>.st0{fill:#c72127}.st1{fill:#fff}</style><circle cx="250" cy="250" r="250" class="st0"/><path d="M250 4c33.2 0 65.4 6.5 95.8 19.3C375.1 35.7 401.4 53.4 424 76s40.3 48.9 52.7 78.2c12.8 30.3 19.3 62.5 19.3 95.8s-6.5 65.4-19.3 95.8c-12.4 29.3-30.1 55.6-52.7 78.2s-48.9 40.3-78.2 52.7C315.4 489.5 283.2 496 250 496s-65.4-6.5-95.8-19.3C124.9 464.3 98.6 446.6 76 424s-40.3-48.9-52.7-78.2C10.5 315.4 4 283.2 4 250s6.5-65.4 19.3-95.8C35.7 125 53.5 98.6 76.1 76.1c22.6-22.6 48.9-40.3 78.2-52.7C184.6 10.5 216.8 4 250 4m0-4C111.9 0 0 111.9 0 250s111.9 250 250 250 250-111.9 250-250S388.1 0 250 0z"/><path d="M30.6 273.7v-38.3c-.4.5-1 .9-1.6 1.3-.7.3-1.4.6-2.1.8-.7.2-1.4.3-2.1.3v-5.3c.9-.1 1.9-.5 2.9-.9 1-.5 1.8-1.1 2.6-1.9.8-.8 1.5-1.8 2-3h5.6V274h-7.3zm23 .5c-2 0-3.6-.4-5-1.1s-2.4-2-3.2-3.8c-.7-1.7-1.1-4.1-1.1-7v-2.6h6.8v1c0 1.9.1 3.4.2 4.4.2 1.1.4 1.8.9 2.2.4.4 1.1.6 1.9.6.9 0 1.5-.3 1.9-.8.4-.5.6-1.4.6-2.5.1-1.1.1-2.6.1-4.4v-5.5c-.4.3-1 .5-1.8.7-.7.2-1.6.3-2.6.3-2.2 0-3.9-.5-5.2-1.6-1.3-1.1-2.2-2.7-2.7-4.7-.5-2.1-.8-4.6-.8-7.6v-1.7c0-2.2.1-4.2.4-6 .3-1.8.8-3.3 1.6-4.5.7-1.2 1.8-2.2 3.1-2.8 1.3-.7 3.1-1 5.2-1 2.2 0 3.9.3 5.3 1 1.3.6 2.3 1.6 3 2.8.7 1.2 1.1 2.8 1.4 4.6s.3 3.9.3 6.3v18.9c0 3.6-.3 6.5-1 8.6-.7 2.2-1.8 3.7-3.3 4.7-1.6 1.1-3.5 1.5-6 1.5zm.1-24.2c.6 0 1.1 0 1.5-.1.4-.1.7-.2.9-.3.2-.1.4-.3.6-.5v-10.3c0-2.2-.2-3.8-.6-4.9-.4-1.1-1.2-1.6-2.4-1.6-.9 0-1.5.2-2 .7-.4.5-.8 1.2-.9 2.2-.2 1-.3 2.2-.3 3.7v4.2c0 1.7.1 3 .3 4.1.2 1 .5 1.8.9 2.2.6.3 1.2.6 2 .6zm383 23.6c.3-4.3.9-8.4 1.7-12.2.8-3.8 1.8-7.4 2.8-10.7s2.1-6.5 3.1-9.4c.8-2.4 1.4-4.4 2-5.9.6-1.5.9-2.5 1-2.8h-13.4v-6.3h20.9v5.2c-.2 1.4-.7 3.3-1.7 5.7-1 2.3-2 5.1-3 8.3-.8 2.5-1.6 5.3-2.4 8.3-.8 3-1.4 6.1-1.9 9.4s-.9 6.8-1.2 10.4h-7.9zm33.3.6c-2.2 0-4-.3-5.4-1-1.4-.7-2.5-1.6-3.2-2.9-.8-1.3-1.3-2.8-1.6-4.6-.3-1.8-.4-3.9-.4-6.2V240c0-3.6.4-6.4 1.2-8.5.8-2.1 2-3.6 3.6-4.4 1.6-.9 3.6-1.3 6-1.3 2.1 0 3.8.4 5.2 1.2 1.4.8 2.4 2 3 3.8.7 1.7 1 4.1 1 7v2.4h-6.7v-1c0-1.8-.1-3.2-.2-4.2s-.4-1.8-.8-2.3c-.4-.5-1-.7-1.9-.7-.9 0-1.6.2-2.1.7-.5.5-.8 1.3-.9 2.3-.2 1.1-.2 2.6-.2 4.4v6.7c.5-.7 1.3-1.3 2.2-1.7.9-.4 2-.6 3.1-.6 2.1 0 3.8.5 5 1.5 1.2 1 2.1 2.6 2.6 4.7s.8 4.7.8 7.8v2.6c0 3-.3 5.4-.9 7.5-.6 2-1.6 3.5-3.1 4.6-1.5 1.1-3.6 1.7-6.3 1.7zm0-6.3c.9 0 1.5-.2 2-.5s.8-1 1-1.8c.2-.9.3-2.1.3-3.6v-4.5c0-1.8-.1-3.2-.3-4.2-.2-1.1-.5-1.8-1-2.3-.5-.5-1.1-.7-1.9-.7-.7 0-1.3.1-1.8.4-.5.2-.9.5-1.2.9-.3.4-.5.8-.6 1.2v8.5c0 1.5.1 2.8.3 3.7s.6 1.7 1.1 2.2c.6.5 1.3.7 2.1.7z"/><path d="m64.9 387.2 38.4-30.4 10.4 13.2-5.1 4-5.8-7.3-10.2 8.1 5.4 6.8-5.1 4-5.4-6.8-18 14.3-4.6-5.9zm29 32.8c-1.9-1.7-3-3.5-3.5-5.4-.5-1.9-.2-3.9.6-5.9.9-2.1 2.4-4.3 4.5-6.6l15.2-16.5c1.9-2.1 3.8-3.6 5.7-4.6 1.9-1 3.8-1.3 5.7-1 1.9.3 3.8 1.3 5.8 3.1 1.4 1.3 2.5 2.7 3 4s.8 2.8.6 4.2-.7 2.9-1.5 4.3c-.8 1.5-2 3-3.4 4.6l-15.2 16.5c-2.1 2.3-4.2 4-6.1 5-2 1.1-3.9 1.5-5.8 1.2-1.9-.2-3.8-1.2-5.6-2.9zm4.3-4.7c.7.6 1.4.9 2.1.8.7-.1 1.5-.5 2.4-1.2.9-.7 1.9-1.7 3.1-3l15.4-16.8c1.4-1.6 2.4-2.9 2.9-4s.3-2.1-.7-3c-1-.9-2.1-1.1-3.2-.6s-2.4 1.6-3.9 3.2L101 407.3c-1.2 1.3-2.1 2.4-2.8 3.4-.7.9-1 1.8-1 2.5s.3 1.4 1 2.1zm27 28.9c-2.1-1.4-3.6-3-4.4-4.7-.8-1.8-.9-3.8-.4-5.9.5-2.2 1.6-4.6 3.3-7.2l12.1-18.8c1.5-2.4 3.1-4.2 4.9-5.5 1.7-1.3 3.5-1.9 5.5-2 1.9 0 4 .7 6.2 2.1 1.7 1.1 2.9 2.2 3.7 3.5.8 1.2 1.2 2.6 1.3 4s-.2 2.9-.8 4.5c-.6 1.6-1.4 3.3-2.6 5.1L141.9 438c-1.7 2.6-3.4 4.6-5.2 6-1.8 1.4-3.6 2.1-5.5 2.1s-3.9-.5-6-1.9zm3.5-5.4c.8.5 1.5.6 2.2.4.7-.2 1.4-.8 2.2-1.6.8-.9 1.6-2 2.5-3.5l12.4-19.2c1.2-1.8 1.9-3.3 2.2-4.5.3-1.2-.1-2.1-1.2-2.9-1.1-.7-2.2-.8-3.2-.1-1 .7-2.1 1.9-3.3 3.8L130 430.4c-1 1.5-1.7 2.8-2.2 3.8-.5 1-.7 1.9-.5 2.6.1.8.6 1.4 1.4 2zm24.3 20.1 17.3-38.8-5.2-2.3 2.6-5.9 17.1 7.6-2.6 5.9-5-2.2-17.4 38.8-6.8-3.1zm26.4 10.6 12.9-47.2 10.2 2.8c2.4.7 4.2 1.5 5.4 2.6 1.2 1.1 1.9 2.5 2.1 4.3.2 1.7 0 3.9-.7 6.4l-.4 1.5c-.7 2.5-1.5 4.4-2.6 5.8s-2.4 2.2-4.1 2.4c1.1.7 1.9 1.8 2.4 3 .5 1.3.6 2.7.5 4.3-.1 1.6-.4 3.3-.9 5.2l-.3 1.2c-.9 3.1-1.9 5.6-3.2 7.4-1.3 1.8-2.8 2.9-4.5 3.4-1.8.5-3.9.4-6.3-.3l-10.5-2.8zm8.7-3.6 2.6.7c.9.3 1.8.3 2.4 0s1.3-.9 1.8-1.8 1-2.2 1.5-3.9l1-3.8c.6-2.3.9-4 .7-5.2-.2-1.2-.9-1.9-2.3-2.3l-3-.8-4.7 17.1zm6.2-22.6 2.7.7c.6.2 1.2.2 1.6.1.4-.1.8-.3 1.2-.7.3-.4.7-1 .9-1.7s.6-1.8.9-3l.8-2.8c.3-1.3.5-2.3.4-3-.1-.7-.3-1.3-.7-1.6-.4-.4-1-.6-1.7-.9l-2.4-.7-3.7 13.6zm20.3 34.6 11.9-48 9.8 1 2.5 49.5-6.9-.7-.3-8.8-7.9-.8-1.9 8.6-7.2-.8zm10.3-13.8 6.4.6-.8-24.8h-.1l-5.5 24.2zm29.6 16.2-2.3-48.9 7.5-.4 2 42.6 9.4-.5.3 6.3-16.9.9zm31.9-2.8-9.1-48.1 7.3-1.4 7.9 41.9 9.3-1.8 1.2 6.2-16.6 3.2zm59.3-17.4c-2.2 1-4.2 1.3-6.1 1s-3.6-1.3-5.2-2.9-3-3.7-4.2-6.5l-8.8-19.4c-.9-2-1.6-4-2-5.8-.4-1.8-.5-3.4-.3-5 .2-1.5.8-2.9 1.8-4.1 1-1.2 2.4-2.2 4.3-3.1 1.7-.8 3.3-1.1 4.7-1.1 1.4 0 2.8.4 4 1 1.2.7 2.3 1.7 3.3 3s1.9 2.9 2.8 4.7l2.8 6.1-6.6 3-2.6-5.7c-1-2.2-1.9-3.7-2.8-4.6-.8-.9-1.8-1.1-2.9-.5-1.2.6-1.8 1.5-1.7 2.8s.6 3 1.5 5l9.5 20.8c.7 1.6 1.4 2.8 2 3.7s1.3 1.5 1.9 1.8c.6.3 1.3.2 2.1-.1 1.1-.5 1.7-1.4 1.6-2.7-.1-1.3-.7-3.1-1.7-5.4l-2.9-6.4 6.7-3 2.9 6.3c1.3 2.8 2 5.3 2.2 7.5.2 2.2-.2 4.1-1.2 5.6-1.2 1.7-2.9 3-5.1 4zm24.8-13.7-26.9-41 6.2-4.1 23.4 35.7 7.9-5.2 3.5 5.3-14.1 9.3zm34.5-25.3c-1.9 1.7-3.7 2.7-5.6 3.1-1.8.4-3.7.1-5.5-.9-1.9-.9-3.8-2.5-5.8-4.7l-24.4-27 5.5-5 24.4 26.9c.9 1 1.8 1.9 2.6 2.6.8.7 1.5 1.1 2.3 1.2.7.1 1.5-.2 2.3-.9.8-.7 1.2-1.4 1.1-2.2 0-.7-.4-1.5-1-2.4s-1.4-1.8-2.3-2.8l-24.4-26.9 5.5-5 24.4 27c2 2.2 3.4 4.3 4.1 6.2.8 1.9.9 3.8.3 5.6-.4 1.7-1.6 3.5-3.5 5.2zm20.2-21.4-38.6-30.2 6.5-8.3c1.5-1.9 3-3.3 4.5-4 1.5-.7 3.1-.8 4.8-.3 1.7.5 3.6 1.5 5.6 3.2l1.2.9c2 1.6 3.4 3.1 4.3 4.6.9 1.5 1.1 3.1.7 4.7 1.1-.7 2.4-1.1 3.7-1 1.3.1 2.7.5 4.2 1.2s2.9 1.7 4.4 2.8l1 .8c2.6 2 4.4 4 5.6 5.8 1.2 1.8 1.6 3.7 1.4 5.5-.2 1.8-1.1 3.7-2.7 5.7l-6.6 8.6zm-18.3-23.8 1.7-2.2c.4-.5.7-1 .8-1.4.1-.4 0-.9-.2-1.3-.2-.5-.6-1-1.2-1.5-.6-.6-1.4-1.2-2.4-2l-2.3-1.8c-1-.8-1.9-1.3-2.6-1.6-.7-.2-1.3-.2-1.8 0s-1 .7-1.5 1.3l-1.5 2 11 8.5zm18.4 14.4 1.6-2.1c.6-.8.9-1.5.9-2.3 0-.7-.3-1.5-.9-2.3-.6-.8-1.7-1.8-3-2.9l-3.1-2.4c-1.9-1.5-3.4-2.4-4.5-2.7s-2.1.1-3 1.2l-1.9 2.5 13.9 11zm-319-245.9-32.4-36.3 6.2-7.4 41.5 25.5-4.4 5.2-7.3-4.7-5 5.9 5.9 6.3-4.5 5.5zm-5.4-16 4.1-4.8-20.6-13.1-.1.1 16.6 17.8zm27.2-8.5-30.7-37 4.4-3.7 26.3 15.7-8.8-9.8-10-12.1 5.1-4.2 30.7 37-4 3.3L114 92.8l8.4 9.5 11 13.3-5.3 4.3zM157 97.8 129.3 58l5.8-3.1 19.1 28.7-12-32.4 5.2-2.8 20 28.2-13.3-31.8 5.8-3.1L177.6 87l-6.5 3.4-18.7-26.3 11 30.4-6.4 3.3zm43.6-18.3c-2.4.7-4.5.8-6.3.2-1.8-.6-3.4-1.8-4.7-3.5-1.3-1.8-2.4-4.2-3.2-7.1L180.3 48c-.8-2.7-1.1-5-.9-7.1s.8-3.9 2.1-5.3c1.2-1.5 3.1-2.5 5.5-3.3 1.9-.5 3.5-.7 5-.5s2.7.7 3.8 1.6c1.1.9 2.1 2 2.9 3.5.8 1.5 1.5 3.2 2.1 5.2l6.1 21.1c.9 2.9 1.2 5.5 1.1 7.7-.1 2.2-.8 4-2 5.5-1.2 1.4-3 2.5-5.4 3.1zm-1.8-6c.9-.3 1.5-.7 1.7-1.4s.3-1.5.2-2.7c-.2-1.1-.5-2.5-1-4.1l-6.2-21.5c-.6-2-1.2-3.5-1.9-4.5s-1.7-1.3-2.9-.9c-1.3.4-2 1.2-2.1 2.3-.1 1.2.1 2.8.7 4.9l6.3 21.6c.5 1.7 1 3 1.4 4.1.5 1 1 1.7 1.6 2.1.5.3 1.3.3 2.2.1zm22.8.5-4.9-47.9 12-1.2c2.5-.3 4.4 0 5.8.9 1.3.9 2.3 2.2 2.9 4 .6 1.8 1 4.1 1.3 6.8.3 2.8.2 5-.2 6.7-.4 1.7-1.5 2.9-3.2 3.6.8.1 1.6.3 2.2.8.6.5 1.2 1.2 1.6 2.2s.8 2.3 1.2 3.9c.3 1.6.6 3.5.8 5.9 0 .2.1.7.2 1.5s.2 1.8.3 3c.1 1.1.3 2.3.4 3.4.1 1.1.3 2.1.4 2.9s.2 1.3.3 1.4l-7.3.8c-.1-.1-.2-.5-.3-1.4-.1-.8-.3-1.9-.4-3.2s-.3-2.7-.5-4.2-.3-3-.5-4.4c-.2-1.5-.3-2.8-.4-3.9-.1-1.4-.4-2.5-.6-3.2s-.7-1.2-1.3-1.4c-.6-.2-1.4-.3-2.4-.3l-2.4.1 2.3 22.6-7.3.6zm4.4-29 2.9-.3c.9-.1 1.5-.4 2-.8.4-.4.7-1.2.7-2.3.1-1.1 0-2.6-.2-4.7v-.3c-.2-1.7-.4-3-.6-3.9-.3-.9-.7-1.5-1.2-1.8-.6-.3-1.4-.4-2.5-.3l-2.5.3L226 45zm30.5 27.1 2.3-41.7-5.6-.3.3-6.3 18.3 1-.3 6.3-5.4-.3-2.3 41.7-7.3-.4zm71.4 17.7 15.5-46.2 6.2 3.2-7.2 20.8-5.3 14.5.2.1 8.5-12.8 12.3-18.1 6.1 3.1L335.9 94l-8-4.2zm21.3 12.3 27.7-39.4 6 4.2-27.7 39.4-6-4.2zm15.2 11.4 32.3-35.7 5.4 4.9-28.1 31.1 6.9 6.2-4.2 4.6-12.3-11.1zm17.6 16.9 36.8-31 4.7 5.6-32.1 27 6 7.1-4.8 4-10.6-12.7zm15.3 18.9 44.9-18.6 4.9 8.3-37.7 30.8-3.5-5.9 6.8-5.4-4-6.7-7.9 3.5-3.5-6zm16.9.2 3.2 5.4 19.2-15.1-.1-.1-22.3 9.8zM308.4 31.2l-10.1 47.1-7.2-1.6 4.7-21.8 1.4-6.2 1.4-6.7-6.4-1.4-1.5 6.7-1.3 6.2-4.7 21.8-7.2-1.5 10.2-47 7.2 1.5-1.4 6.1 6.5 1.4 1.3-6.1zM59.5 127.9l41.7 24-3.7 6.3-19.4-11.1-5.4-3.2-6-3.4-3.2 5.7 5.9 3.4 5.5 3.1 19.3 11.2-3.6 6.4-41.7-24.1 3.6-6.3L58 143l3.2-5.7-5.4-3.1zM409 250c0 42.5-16.5 82.4-46.6 112.4S292.5 409 250 409s-82.4-16.5-112.4-46.6c-30-30-46.6-70-46.6-112.4 0-42.5 16.5-82.4 46.6-112.4 30-30 70-46.6 112.4-46.6 42.5 0 82.4 16.5 112.4 46.6 30.1 30 46.6 69.9 46.6 112.4z" class="st1"/><path d="M250 91c42.5 0 82.4 16.5 112.4 46.6 30 30 46.6 70 46.6 112.4 0 42.5-16.5 82.4-46.6 112.4-30 30-70 46.6-112.4 46.6-42.5 0-82.4-16.5-112.4-46.6-30-30-46.6-70-46.6-112.4 0-42.5 16.5-82.4 46.6-112.4C167.6 107.5 207.5 91 250 91m0-4c-43.5 0-84.5 17-115.3 47.7C104 165.5 87 206.5 87 250s17 84.5 47.7 115.3C165.5 396 206.5 413 250 413s84.5-17 115.3-47.7C396 334.5 413 293.5 413 250s-17-84.5-47.7-115.3C334.5 104 293.5 87 250 87z"/><path d="M250 399.5c-82.6 0-149.5-66.9-149.5-149.5 0-7.1.5-14 1.4-20.8l50.1 57.6 28.3 32.5 69.7 80.2zM365.4 155 350 172.7l-28.3 32.5-28.3 32.5-28.3 32.5-15.1 17.5-13.1-15.1-28.3-32.5-28.3-32.5L152 175l-17.4-20c27.4-33.3 68.9-54.5 115.4-54.5s88 21.2 115.4 54.5zm34.1 95c0 82.6-66.9 149.5-149.5 149.5l71.7-82.5 28.3-32.5 48.1-55.3c.9 6.8 1.4 13.7 1.4 20.8z"/><path d="M398.1 229.2 350 284.5 321.7 317 250 399.5l-69.7-80.2-28.3-32.5-50.1-57.6c3.9-28 15.5-53.5 32.7-74.2l17.4 20 28.3 32.5 28.3 32.5 28.3 32.5 13.1 15.1 15.2-17.4 28.3-32.5 28.3-32.5 28.3-32.5 15.4-17.7c17 20.7 28.7 46.2 32.6 74.2z" class="st0"/><path d="M320 150.5v26.9h-26.7v-26.9h-29.8v26.9h-26.8v-26.9h-29.6v26.9h-26.9v-26.9h-29.9v195.7h29.9V202.7h26.9v146.8h29.6V202.7h26.8v146.8h29.8V202.7H320v143.6h29.7V150.5z" class="st1"/><path d="M308.4 220.5v111.8L250 399.5l-56.6-65.1.8-110.9 14.4 16.6 28.3 32.5 13.1 15.1 15.1-17.4 28.3-32.5z" class="st0"/></svg>